<?xml version="1.0" encoding="UTF-8" standalone="no"?>
<!DOCTYPE svg PUBLIC "-//W3C//DTD SVG 1.1//EN" "http://www.w3.org/Graphics/SVG/1.1/DTD/svg11.dtd">
<svg width="100%" height="100%" viewBox="0 0 129 117" version="1.1" xmlns="http://www.w3.org/2000/svg" xmlns:xlink="http://www.w3.org/1999/xlink" xml:space="preserve" xmlns:serif="http://www.serif.com/" style="fill-rule:evenodd;clip-rule:evenodd;stroke-linecap:round;stroke-linejoin:round;stroke-miterlimit:1.5;">
    <g id="Artboard1" transform="matrix(1.14529,0,0,1.32711,-281.742,-187.123)">
        <rect x="246" y="141" width="112" height="88" style="fill:rgb(235,235,235);"/>
        <g transform="matrix(0.87314,0,0,0.753517,248.302,137.905)">
            <path d="M66.094,15.223C63.039,14.926 59.961,14.926 56.906,15.223L55.393,22.59C52.464,23.038 49.594,23.807 46.834,24.883L41.84,19.26C39.045,20.53 36.381,22.069 33.883,23.854L36.256,30.99C33.944,32.842 31.842,34.944 29.99,37.256L22.854,34.883C21.069,37.381 19.53,40.045 18.26,42.84L23.883,47.834C22.807,50.594 22.038,53.464 21.59,56.393L14.223,57.906C13.926,60.961 13.926,64.039 14.223,67.094L21.59,68.607C22.038,71.536 22.807,74.406 23.883,77.166L18.26,82.16C19.53,84.955 21.069,87.619 22.854,90.117L29.99,87.744C31.842,90.056 33.944,92.158 36.256,94.01L33.883,101.146C36.381,102.931 39.045,104.47 41.84,105.74L46.834,100.117C49.594,101.193 52.464,101.962 55.393,102.41L56.906,109.777C59.961,110.074 63.039,110.074 66.094,109.777L67.607,102.41C70.536,101.962 73.406,101.193 76.166,100.117L81.16,105.74C83.955,104.47 86.619,102.931 89.117,101.146L86.744,94.01C89.056,92.158 91.158,90.056 93.01,87.744L100.146,90.117C101.931,87.619 103.47,84.955 104.74,82.16L99.117,77.166C100.193,74.406 100.962,71.536 101.41,68.607L108.777,67.094C109.074,64.039 109.074,60.961 108.777,57.906L101.41,56.393C100.962,53.464 100.193,50.594 99.117,47.834L104.74,42.84C103.47,40.045 101.931,37.381 100.146,34.883L93.01,37.256C91.158,34.944 89.056,32.842 86.744,30.99L89.117,23.854C86.619,22.069 83.955,20.53 81.16,19.26L76.166,24.883C73.406,23.807 70.536,23.038 67.607,22.59L66.094,15.223ZM61.5,53C66.743,53 71,57.257 71,62.5C71,67.743 66.743,72 61.5,72C56.257,72 52,67.743 52,62.5C52,57.257 56.257,53 61.5,53Z" style="fill:rgb(172,172,172);stroke:rgb(235,235,235);stroke-width:1px;"/>
        </g>
    </g>
</svg>
