

<svg width="100%" height="100%" viewBox="0 0 88 14" version="1.1" xmlns="http://www.w3.org/2000/svg" xmlns:xlink="http://www.w3.org/1999/xlink" xml:space="preserve" xmlns:serif="http://www.serif.com/" style="fill-rule:evenodd;clip-rule:evenodd;stroke-linejoin:round;stroke-miterlimit:2;">
    <g transform="matrix(1,0,0,1,-64.2482,-46.5823)">
        <g id="IconColors" transform="matrix(2.9006,0,0,0.444143,64.2482,46.5823)">
            <rect x="0" y="0" width="30" height="30" style="fill:none;"/>
            <g transform="matrix(0.344756,0,0,2.25153,-22.381,-107.124)">
                <circle cx="70.834" cy="54.254" r="4.978" style="fill:rgb(183,48,48);"/>
            </g>
            <g class="second" transform="matrix(0.344756,0,0,2.25153,-17.23,-107.124)">
                <circle cx="70.834" cy="54.254" r="4.978" style="fill:rgb(183,48,48);"/>
            </g>
            <g transform="matrix(0.344756,0,0,2.25153,-12.0571,-107.124)">
                <circle cx="70.834" cy="54.254" r="4.978" style="fill:rgb(183,48,48);"/>
            </g>
            <g transform="matrix(0.344756,0,0,2.25153,-6.91419,-107.124)">
                <circle cx="70.834" cy="54.254" r="4.978" style="fill:rgb(183,48,48);"/>
            </g>
            <g transform="matrix(0.344756,0,0,2.25153,-1.74844,-107.124)">
                <circle cx="70.834" cy="54.254" r="4.978" style="fill:rgb(183,48,48);"/>
            </g>
            <g transform="matrix(0.344756,0,0,2.25153,3.41731,-107.124)">
                <circle cx="70.834" cy="54.254" r="4.978" style="fill:rgb(183,48,48);"/>
            </g>
        </g>
    </g>
</svg>
