
<svg width="100%" height="100%" viewBox="0 0 61 14" version="1.1" xmlns="http://www.w3.org/2000/svg" xmlns:xlink="http://www.w3.org/1999/xlink" xml:space="preserve" xmlns:serif="http://www.serif.com/" style="fill-rule:evenodd;clip-rule:evenodd;stroke-linejoin:round;stroke-miterlimit:2;">
    <g transform="matrix(1,0,0,1,0,-46.5823)">
        <g id="IconHearts" transform="matrix(2.00113,0,0,0.444143,0,46.5823)">
            <rect x="0" y="0" width="30" height="30" style="fill:none;"/>
            <g transform="matrix(0.203344,0,0,0.8212,11.6296,-26.9947)">
                <path d="M16.575,41.936C19.401,36.11 25.054,36.11 27.88,39.023C30.707,41.936 30.707,47.761 27.88,53.587C25.902,57.956 20.814,62.325 16.575,65.238C12.335,62.325 7.248,57.956 5.269,53.587C2.443,47.761 2.443,41.936 5.269,39.023C8.096,36.11 13.748,36.11 16.575,41.936Z" style="fill:#b2c6ab"/>
            </g>
            <g transform="matrix(0.108173,0,0,0.436854,19.6914,-7.32632)">
                <path d="M16.575,41.936C19.401,36.11 25.054,36.11 27.88,39.023C30.707,41.936 30.707,47.761 27.88,53.587C25.902,57.956 20.814,62.325 16.575,65.238C12.335,62.325 7.248,57.956 5.269,53.587C2.443,47.761 2.443,41.936 5.269,39.023C8.096,36.11 13.748,36.11 16.575,41.936Z" style="fill:#b2c6ab"/>
            </g>
            <g transform="matrix(0.108173,0,0,0.436854,6.73117,-7.32632)">
                <path d="M16.575,41.936C19.401,36.11 25.054,36.11 27.88,39.023C30.707,41.936 30.707,47.761 27.88,53.587C25.902,57.956 20.814,62.325 16.575,65.238C12.335,62.325 7.248,57.956 5.269,53.587C2.443,47.761 2.443,41.936 5.269,39.023C8.096,36.11 13.748,36.11 16.575,41.936Z" style="fill:#b2c6ab"/>
            </g>
            <g transform="matrix(0.0575447,0,0,0.232393,25.0677,3.13669)">
                <path d="M16.575,41.936C19.401,36.11 25.054,36.11 27.88,39.023C30.707,41.936 30.707,47.761 27.88,53.587C25.902,57.956 20.814,62.325 16.575,65.238C12.335,62.325 7.248,57.956 5.269,53.587C2.443,47.761 2.443,41.936 5.269,39.023C8.096,36.11 13.748,36.11 16.575,41.936Z" style="fill:#b2c6ab"/>
            </g>
            <g transform="matrix(0.0575447,0,0,0.232393,3.0406,3.13669)">
                <path d="M16.575,41.936C19.401,36.11 25.054,36.11 27.88,39.023C30.707,41.936 30.707,47.761 27.88,53.587C25.902,57.956 20.814,62.325 16.575,65.238C12.335,62.325 7.248,57.956 5.269,53.587C2.443,47.761 2.443,41.936 5.269,39.023C8.096,36.11 13.748,36.11 16.575,41.936Z" style="fill:#b2c6ab"/>
            </g>
        </g>
    </g>
</svg>
